<?xml version="1.0" standalone="no"?>
 <!DOCTYPE svg PUBLIC "-//W3C//DTD SVG 1.1//EN" 
 "http://www.w3.org/Graphics/SVG/1.1/DTD/svg11.dtd"> 
<svg xmlns="http://www.w3.org/2000/svg" version="1.1" 
    width="29.7002cm" height="21.0007cm" viewBox="0 0 116930 82680 ">
<title>SVG Picture created as Ampermetr-B_Cu.svg date 2015/11/05 23:22:49 </title>
  <desc>Picture generated by PCBNEW </desc>
<g style="fill:#000000; fill-opacity:1;stroke:#000000; stroke-opacity:1;
stroke-linecap:round; stroke-linejoin:round; "
 transform="translate(0 0) scale(1 1)">
</g>
<g style="fill:#000000; fill-opacity:0.0; 
stroke:#000000; stroke-width:39.3701; stroke-opacity:1; 
stroke-linecap:round; stroke-linejoin:round;">
<path d="M88540 38740 A1770 1770 0.0 0 0 86770 36970 " />
<path d="M108270 36970 A1770 1770 0.0 0 0 106500 38740 " />
<path d="M86770 9250 A1770 1770 0.0 0 0 88540 7480 " />
<path d="M106500 7480 A1770 1770 0.0 0 0 108270 9250 " />
</g>
<g style="fill:#000000; fill-opacity:0.0; 
stroke:#000000; stroke-width:118.11; stroke-opacity:1; 
stroke-linecap:round; stroke-linejoin:round;">
<path d="M94817 8881
L94817 9668
" />
<path d="M94817 8918
L94892 8881
L95042 8881
L95117 8918
L95155 8956
L95192 9031
L95192 9256
L95155 9331
L95117 9368
L95042 9406
L94892 9406
L94817 9368
" />
<path d="M95492 9368
L95567 9406
L95717 9406
L95792 9368
L95830 9293
L95830 9256
L95792 9181
L95717 9143
L95605 9143
L95530 9106
L95492 9031
L95492 8993
L95530 8918
L95605 8881
L95717 8881
L95792 8918
" />
<path d="M96055 8881
L96355 8881
" />
<path d="M96167 8618
L96167 9293
L96205 9368
L96280 9406
L96355 9406
" />
<path d="M96917 9368
L96842 9406
L96692 9406
L96617 9368
L96580 9293
L96580 8993
L96617 8918
L96692 8881
L96842 8881
L96917 8918
L96955 8993
L96955 9068
L96580 9143
" />
<path d="M97292 9406
L97292 8618
" />
<path d="M97630 9406
L97630 8993
L97592 8918
L97517 8881
L97405 8881
L97330 8918
L97292 8956
" />
<path d="M98117 9406
L98042 9368
L98004 9293
L98004 8618
" />
<path d="M98417 9406
L98417 8881
" />
<path d="M98417 8618
L98379 8656
L98417 8693
L98454 8656
L98417 8618
L98417 8693
" />
<path d="M98792 9406
L98792 8618
" />
<path d="M98867 9106
L99092 9406
" />
<path d="M99092 8881
L98792 9181
" />
<path d="M99429 9331
L99467 9368
L99429 9406
L99392 9368
L99429 9331
L99429 9406
" />
<path d="M100142 9368
L100067 9406
L99917 9406
L99842 9368
L99804 9331
L99767 9256
L99767 9031
L99804 8956
L99842 8918
L99917 8881
L100067 8881
L100142 8918
" />
<path d="M100404 8881
L100817 8881
L100404 9406
L100817 9406
" />
</g>
<g style="fill:#000000; fill-opacity:0.0; 
stroke:#000000; stroke-width:39.3701; stroke-opacity:1; 
stroke-linecap:round; stroke-linejoin:round;">
<path d="M108268 38740
L108268 7480
" />
<path d="M86772 38740
L108268 38740
" />
<path d="M86772 7480
L86772 38740
" />
<path d="M108268 7480
L86772 7480
" />
</g>
<g style="fill:#000000; fill-opacity:1.0; 
stroke:#000000; stroke-width:39.3701; stroke-opacity:1; 
stroke-linecap:round; stroke-linejoin:round;">
<circle cx="106300" cy="13779.5" r="275.815" /> 
<circle cx="106300" cy="12795.3" r="275.815" /> 
<circle cx="106300" cy="12007.9" r="275.815" /> 
<circle cx="106300" cy="11023.6" r="275.815" /> 
<circle cx="107127" cy="14704.7" r="570.815" /> 
<circle cx="107127" cy="10098.4" r="570.815" /> 
<circle cx="107206" cy="11496.1" r="275.815" /> 
<circle cx="107206" cy="13307.1" r="275.815" /> 
<circle cx="104874" cy="19712" r="374.016" /> 
<circle cx="104795" cy="21011.2" r="374.016" /> 
<circle cx="104717" cy="22586" r="374.016" /> 
<polyline style="fill-rule:evenodd;"
points="97655,19799
98404,19799
98404,19050
97655,19050
97655,19799
" /> 
<circle cx="98030" cy="22425" r="374.016" /> 
<polyline style="fill-rule:evenodd;"
points="106095,24134
106844,24134
106844,23385
106095,23385
106095,24134
" /> 
<circle cx="106470" cy="26760" r="280.315" /> 
<polyline style="fill-rule:evenodd;"
points="99940,14594
98799,14594
98799,15421
99940,15421
99940,14594
" /> 
<polyline style="fill-rule:evenodd;"
points="99940,16878
98799,16878
98799,17705
99940,17705
99940,16878
" /> 
<polyline style="fill-rule:evenodd;"
points="100287,30236
100287,29763
99735,29763
99735,30236
100287,30236
" /> 
<polyline style="fill-rule:evenodd;"
points="99224,30236
99224,29763
98672,29763
98672,30236
99224,30236
" /> 
<polyline style="fill-rule:evenodd;"
points="98026,30344
97553,30344
97553,30896
98026,30896
98026,30344
" /> 
<polyline style="fill-rule:evenodd;"
points="98026,31407
97553,31407
97553,31959
98026,31959
98026,31407
" /> 
<polyline style="fill-rule:evenodd;"
points="97036,30342
96563,30342
96563,30894
97036,30894
97036,30342
" /> 
<polyline style="fill-rule:evenodd;"
points="97036,31405
96563,31405
96563,31957
97036,31957
97036,31405
" /> 
<polyline style="fill-rule:evenodd;"
points="101162,21483
101162,21956
101714,21956
101714,21483
101162,21483
" /> 
<polyline style="fill-rule:evenodd;"
points="102225,21483
102225,21956
102777,21956
102777,21483
102225,21483
" /> 
<polyline style="fill-rule:evenodd;"
points="99573,20627
100046,20627
100046,20075
99573,20075
99573,20627
" /> 
<polyline style="fill-rule:evenodd;"
points="99573,19564
100046,19564
100046,19012
99573,19012
99573,19564
" /> 
<polyline style="fill-rule:evenodd;"
points="99553,33047
100026,33047
100026,32495
99553,32495
99553,33047
" /> 
<polyline style="fill-rule:evenodd;"
points="99553,31984
100026,31984
100026,31432
99553,31432
99553,31984
" /> 
<polyline style="fill-rule:evenodd;"
points="95022,15743
95022,16216
95574,16216
95574,15743
95022,15743
" /> 
<polyline style="fill-rule:evenodd;"
points="96085,15743
96085,16216
96637,16216
96637,15743
96085,15743
" /> 
<circle cx="90830.8" cy="11136.7" r="275.815" /> 
<circle cx="90830.8" cy="12136.7" r="275.815" /> 
<circle cx="90830.8" cy="12936.7" r="275.815" /> 
<circle cx="90830.8" cy="13936.7" r="275.815" /> 
<circle cx="89780.8" cy="9936.67" r="570.815" /> 
<circle cx="89780.8" cy="15336.7" r="570.815" /> 
<circle cx="106489" cy="34856" r="280.315" /> 
<circle cx="105489" cy="34856" r="280.315" /> 
<circle cx="104489" cy="34856" r="280.315" /> 
<circle cx="103489" cy="34856" r="280.315" /> 
<circle cx="102489" cy="34856" r="280.315" /> 
<circle cx="101489" cy="34856" r="280.315" /> 
<circle cx="100489" cy="34856" r="280.315" /> 
<circle cx="99489" cy="34856" r="280.315" /> 
<circle cx="98489" cy="34856" r="280.315" /> 
<circle cx="97489" cy="34856" r="280.315" /> 
<circle cx="96489" cy="34856" r="280.315" /> 
<circle cx="95489" cy="34856" r="280.315" /> 
<circle cx="95489" cy="28856" r="280.315" /> 
<circle cx="96489" cy="28856" r="280.315" /> 
<circle cx="97489" cy="28856" r="280.315" /> 
<circle cx="98489" cy="28856" r="280.315" /> 
<circle cx="99489" cy="28856" r="280.315" /> 
<circle cx="100489" cy="28856" r="280.315" /> 
<circle cx="101489" cy="28856" r="280.315" /> 
<circle cx="102489" cy="28856" r="280.315" /> 
<circle cx="103489" cy="28856" r="330.315" /> 
<circle cx="104489" cy="28856" r="280.315" /> 
<circle cx="105489" cy="28856" r="280.315" /> 
<circle cx="106489" cy="28856" r="280.315" /> 
<circle cx="95489" cy="29856" r="280.315" /> 
<circle cx="95489" cy="30856" r="280.315" /> 
<polyline style="fill-rule:evenodd;"
points="88744,20420
88744,19579
87903,19579
87903,20420
88744,20420
" /> 
<polyline style="fill-rule:evenodd;"
points="90229,26547
89668,26547
89668,27308
90229,27308
90229,26547
" /> 
</g>
<g style="fill:#000000; fill-opacity:1.0; 
stroke:#000000; stroke-width:600; stroke-opacity:1; 
stroke-linecap:round; stroke-linejoin:round;">
</g>
<g style="fill:#000000; fill-opacity:0.0; 
stroke:#000000; stroke-width:600; stroke-opacity:1; 
stroke-linecap:round; stroke-linejoin:round;">
<path d="M90949 26828
L90949 27028
" />
<path d="M91949 26828
L91949 27028
" />
<path d="M92949 26828
L92949 27028
" />
<path d="M93949 26828
L93949 27028
" />
<path d="M94949 26828
L94949 27028
" />
<path d="M95949 26828
L95949 27028
" />
<path d="M96949 26828
L96949 27028
" />
<path d="M97949 26828
L97949 27028
" />
<path d="M98949 26828
L98949 27028
" />
<path d="M99949 26828
L99949 27028
" />
<path d="M100949 26828
L100949 27028
" />
<path d="M101949 26828
L101949 27028
" />
<path d="M102949 26828
L102949 27028
" />
<path d="M103949 26828
L103949 27028
" />
</g>
<g style="fill:#000000; fill-opacity:0.0; 
stroke:#000000; stroke-width:680; stroke-opacity:1; 
stroke-linecap:round; stroke-linejoin:round;">
<path d="M104949 26868
L104949 26988
" />
</g>
<g style="fill:#000000; fill-opacity:0.0; 
stroke:#000000; stroke-width:39.3701; stroke-opacity:1; 
stroke-linecap:round; stroke-linejoin:round;">
</g>
<g style="fill:#000000; fill-opacity:1.0; 
stroke:#000000; stroke-width:39.3701; stroke-opacity:1; 
stroke-linecap:round; stroke-linejoin:round;">
<polyline style="fill-rule:evenodd;"
points="88744,22420
88744,21579
87903,21579
87903,22420
88744,22420
" /> 
<polyline style="fill-rule:evenodd;"
points="105657,28244
105657,27771
105105,27771
105105,28244
105657,28244
" /> 
<polyline style="fill-rule:evenodd;"
points="104594,28244
104594,27771
104042,27771
104042,28244
104594,28244
" /> 
<polyline style="fill-rule:evenodd;"
points="93766,14122
93293,14122
93293,14674
93766,14674
93766,14122
" /> 
<polyline style="fill-rule:evenodd;"
points="93766,15185
93293,15185
93293,15737
93766,15737
93766,15185
" /> 
<polyline style="fill-rule:evenodd;"
points="92197,18582
92197,19055
92749,19055
92749,18582
92197,18582
" /> 
<polyline style="fill-rule:evenodd;"
points="93260,18582
93260,19055
93812,19055
93812,18582
93260,18582
" /> 
<circle cx="87796.1" cy="34940.8" r="280.315" /> 
<circle cx="87796.1" cy="33169.2" r="280.315" /> 
<circle cx="88721.3" cy="35433" r="480.315" /> 
<circle cx="88721.3" cy="32677" r="480.315" /> 
<circle cx="87796.1" cy="30925.8" r="280.315" /> 
<circle cx="87796.1" cy="29154.2" r="280.315" /> 
<circle cx="88721.3" cy="31418" r="480.315" /> 
<circle cx="88721.3" cy="28662" r="480.315" /> 
<polyline style="fill-rule:evenodd;"
points="103278,20988
103278,20791
102707,20791
102707,20988
103278,20988
" /> 
<polyline style="fill-rule:evenodd;"
points="103278,20488
103278,20291
102707,20291
102707,20488
103278,20488
" /> 
<polyline style="fill-rule:evenodd;"
points="103278,19988
103278,19791
102707,19791
102707,19988
103278,19988
" /> 
<polyline style="fill-rule:evenodd;"
points="103278,19488
103278,19291
102707,19291
102707,19488
103278,19488
" /> 
<polyline style="fill-rule:evenodd;"
points="101152,19488
101152,19291
100581,19291
100581,19488
101152,19488
" /> 
<polyline style="fill-rule:evenodd;"
points="101152,19988
101152,19791
100581,19791
100581,19988
101152,19988
" /> 
<polyline style="fill-rule:evenodd;"
points="101152,20488
101152,20291
100581,20291
100581,20488
101152,20488
" /> 
<polyline style="fill-rule:evenodd;"
points="101152,20988
101152,20791
100581,20791
100581,20988
101152,20988
" /> 
<polyline style="fill-rule:evenodd;"
points="97228,15018
97228,14821
96657,14821
96657,15018
97228,15018
" /> 
<polyline style="fill-rule:evenodd;"
points="97228,14518
97228,14321
96657,14321
96657,14518
97228,14518
" /> 
<polyline style="fill-rule:evenodd;"
points="97228,14018
97228,13821
96657,13821
96657,14018
97228,14018
" /> 
<polyline style="fill-rule:evenodd;"
points="97228,13518
97228,13321
96657,13321
96657,13518
97228,13518
" /> 
<polyline style="fill-rule:evenodd;"
points="95102,13518
95102,13321
94531,13321
94531,13518
95102,13518
" /> 
<polyline style="fill-rule:evenodd;"
points="95102,14018
95102,13821
94531,13821
94531,14018
95102,14018
" /> 
<polyline style="fill-rule:evenodd;"
points="95102,14518
95102,14321
94531,14321
94531,14518
95102,14518
" /> 
<polyline style="fill-rule:evenodd;"
points="95102,15018
95102,14821
94531,14821
94531,15018
95102,15018
" /> 
<polyline style="fill-rule:evenodd;"
points="93740,22441
94685,22441
94685,21890
93740,21890
93740,22441
" /> 
<polyline style="fill-rule:evenodd;"
points="93740,20649
94685,20649
94685,20098
93740,20098
93740,20649
" /> 
<polyline style="fill-rule:evenodd;"
points="90138,22628
92855,22628
92855,19911
90138,19911
90138,22628
" /> 
<polyline style="fill-rule:evenodd;"
points="89481,28988
89481,30011
90820,30011
90820,28988
89481,28988
" /> 
<polyline style="fill-rule:evenodd;"
points="92159,28988
92159,30011
93498,30011
93498,28988
92159,28988
" /> 
<circle cx="102970" cy="37320" r="280.315" /> 
<circle cx="101970" cy="37320" r="280.315" /> 
<circle cx="103970" cy="37320" r="280.315" /> 
<polyline style="fill-rule:evenodd;"
points="92416,33806
92416,34475
92691,34475
92691,33806
92416,33806
" /> 
<polyline style="fill-rule:evenodd;"
points="93164,33806
93164,34475
93439,34475
93439,33806
93164,33806
" /> 
<polyline style="fill-rule:evenodd;"
points="92790,32624
92790,33293
93065,33293
93065,32624
92790,32624
" /> 
<circle cx="89950" cy="23380" r="373.815" /> 
<polyline style="fill-rule:evenodd;"
points="89576,25253
90323,25253
90323,24506
89576,24506
89576,25253
" /> 
<polyline style="fill-rule:evenodd;"
points="94983,22393
95612,22393
95612,21645
94983,21645
94983,22393
" /> 
<polyline style="fill-rule:evenodd;"
points="94983,20818
95612,20818
95612,20070
94983,20070
94983,20818
" /> 
<circle cx="93468" cy="24244" r="275.815" /> 
<circle cx="94468" cy="24244" r="275.815" /> 
<polyline style="fill-rule:evenodd;"
points="91397,34423
91870,34423
91870,33871
91397,33871
91397,34423
" /> 
<polyline style="fill-rule:evenodd;"
points="91397,33360
91870,33360
91870,32808
91397,32808
91397,33360
" /> 
<polyline style="fill-rule:evenodd;"
points="104561,25529
104561,24938
103813,24938
103813,25529
104561,25529
" /> 
<polyline style="fill-rule:evenodd;"
points="102986,25529
102986,24938
102238,24938
102238,25529
102986,25529
" /> 
</g>
<g style="fill:#000000; fill-opacity:1.0; 
stroke:#000000; stroke-width:500; stroke-opacity:1; 
stroke-linecap:round; stroke-linejoin:round;">
</g>
<g style="fill:#000000; fill-opacity:0.0; 
stroke:#000000; stroke-width:500; stroke-opacity:1; 
stroke-linecap:round; stroke-linejoin:round;">
<path d="M104874 19712
L103817 19712
" />
<path d="M103380 20150
L103180 20150
" />
<path d="M103817 19712
L103380 20150
" />
</g>
<g style="fill:#000000; fill-opacity:0.0; 
stroke:#000000; stroke-width:120; stroke-opacity:1; 
stroke-linecap:round; stroke-linejoin:round;">
<path d="M104874 19764
L104874 19712
" />
</g>
<g style="fill:#000000; fill-opacity:0.0; 
stroke:#000000; stroke-width:240; stroke-opacity:1; 
stroke-linecap:round; stroke-linejoin:round;">
<path d="M102992 19890
L103890 19890
" />
<path d="M102992 20390
L102992 19890
" />
<path d="M103390 20390
L103890 19890
" />
<path d="M102992 20390
L103390 20390
" />
</g>
<g style="fill:#000000; fill-opacity:0.0; 
stroke:#000000; stroke-width:500; stroke-opacity:1; 
stroke-linecap:round; stroke-linejoin:round;">
<path d="M106470 23080
L105670 22280
" />
<path d="M105670 22280
L105670 20507
" />
<path d="M105670 20507
L104874 19712
" />
<path d="M106470 23760
L106470 23080
" />
</g>
<g style="fill:#000000; fill-opacity:0.0; 
stroke:#000000; stroke-width:160; stroke-opacity:1; 
stroke-linecap:round; stroke-linejoin:round;">
<path d="M87254 30920
L87790 30920
" />
<path d="M87790 30920
L87796 30925
" />
<path d="M87254 34980
L87756 34980
" />
<path d="M87756 34980
L87796 34940
" />
<path d="M89949 26928
L88882 26928
" />
<path d="M87254 28555
L87254 30920
" />
<path d="M87254 30920
L87254 34980
" />
<path d="M87254 34980
L87254 35020
" />
<path d="M87254 35020
L87254 36044
" />
<path d="M88882 26928
L87254 28555
" />
<path d="M91634 33084
L91634 32672
" />
<path d="M91634 32672
L91717 32588
" />
<path d="M93302 34141
L93302 33897
" />
<path d="M93302 33897
L92978 33573
" />
<path d="M92978 33573
L92702 33573
" />
<path d="M92702 33573
L91717 32588
" />
<path d="M91717 32588
L90151 31022
" />
<path d="M90151 31022
L90151 29500
" />
</g>
<g style="fill:#000000; fill-opacity:0.0; 
stroke:#000000; stroke-width:120; stroke-opacity:1; 
stroke-linecap:round; stroke-linejoin:round;">
<path d="M89780 15800
L89780 17699
" />
<path d="M89780 12299
L89780 15800
" />
<path d="M89780 17699
L89779 17699
" />
<path d="M102992 17937
L102992 19390
" />
<path d="M102992 17937
L102992 17937
" />
<path d="M102992 20890
L102660 20890
" />
<path d="M102660 20890
L102501 21048
" />
<path d="M102501 21048
L102501 21720
" />
<path d="M104716 22586
L104716 21089
" />
<path d="M104716 21089
L104795 21011
" />
<path d="M102992 20890
L104674 20890
" />
<path d="M104674 20890
L104795 21011
" />
<path d="M102992 20890
L102760 20890
" />
<path d="M102992 19390
L102700 19390
" />
<path d="M89780 12299
L89780 12449
" />
<path d="M89949 26928
L89949 25038
" />
<path d="M100770 36665
L87875 36665
" />
<path d="M101755 36665
L100770 36665
" />
<path d="M87875 36665
L87254 36044
" />
<path d="M99830 33840
L99830 32811
" />
<path d="M99830 32811
L99790 32771
" />
<path d="M96800 31681
L96800 32370
" />
<path d="M102473 33840
L103489 34856
" />
<path d="M98270 33840
L99729 33840
" />
<path d="M99729 33840
L99830 33840
" />
<path d="M99830 33840
L102473 33840
" />
<path d="M96800 32370
L98270 33840
" />
<path d="M89949 26928
L89949 29426
" />
<path d="M89949 29426
L89875 29500
" />
<path d="M89875 27001
L89949 26928
" />
<path d="M102490 19390
L102380 19500
" />
<path d="M102380 19500
L102380 20750
" />
<path d="M102380 20750
L102520 20890
" />
<path d="M102520 20890
L102992 20890
" />
<path d="M102992 19390
L102490 19390
" />
</g>
<g style="fill:#000000; fill-opacity:0.0; 
stroke:#000000; stroke-width:160; stroke-opacity:1; 
stroke-linecap:round; stroke-linejoin:round;">
<path d="M90900 18819
L89780 17699
" />
<path d="M92473 18819
L90900 18819
" />
<path d="M90586 24244
L89950 24880
" />
<path d="M93468 24244
L90586 24244
" />
<path d="M89210 24880
L88323 23993
" />
<path d="M88323 23993
L88323 22000
" />
<path d="M89950 24880
L89210 24880
" />
<path d="M89780 17699
L87925 17699
" />
<path d="M87025 18600
L87025 20835
" />
<path d="M87925 17699
L87025 18600
" />
<path d="M88190 22000
L87025 20835
" />
<path d="M88323 22000
L88190 22000
" />
<path d="M96942 15757
L96720 15980
" />
<path d="M96720 15980
L96361 15980
" />
<path d="M96942 14920
L96942 15757
" />
<path d="M96560 14920
L96310 14670
" />
<path d="M96310 14670
L96310 13850
" />
<path d="M96310 13850
L96300 13840
" />
<path d="M96300 13840
L96300 13630
" />
<path d="M96300 13630
L96510 13420
" />
<path d="M96510 13420
L96942 13420
" />
<path d="M96942 14920
L96560 14920
" />
<path d="M90943 11023
L90830 11136
" />
<path d="M106300 11023
L90943 11023
" />
<path d="M90830 10986
L89780 9936
" />
<path d="M90830 11136
L90830 10986
" />
<path d="M89780 9936
L89780 15336
" />
<path d="M89780 15336
L89780 17699
" />
<path d="M104700 16240
L102992 17947
" />
<path d="M102992 17947
L102992 17937
" />
<path d="M106235 14704
L104700 16240
" />
<path d="M107126 14704
L106235 14704
" />
<path d="M107126 10196
L106300 11023
" />
<path d="M107126 10098
L107126 10196
" />
<path d="M107960 14010
L107960 10931
" />
<path d="M107960 10931
L107126 10098
" />
<path d="M107265 14704
L107960 14010
" />
<path d="M107126 14704
L107265 14704
" />
<path d="M97250 15980
L97510 16240
" />
<path d="M97510 16240
L104700 16240
" />
<path d="M96361 15980
L97250 15980
" />
<path d="M103489 34931
L101755 36665
" />
<path d="M103489 34856
L103489 34931
" />
<path d="M100770 37150
L101500 37880
" />
<path d="M101500 37880
L102410 37880
" />
<path d="M102410 37880
L102970 37320
" />
<path d="M100770 36665
L100770 37150
" />
</g>
<g style="fill:#000000; fill-opacity:0.0; 
stroke:#000000; stroke-width:120; stroke-opacity:1; 
stroke-linecap:round; stroke-linejoin:round;">
<path d="M98030 18180
L98030 19425
" />
<path d="M98040 18170
L98030 18180
" />
<path d="M99370 17291
L98918 17291
" />
<path d="M98688 17291
L98040 17940
" />
<path d="M98040 17940
L98040 18170
" />
<path d="M99370 17291
L98688 17291
" />
<path d="M106489 28856
L106489 26779
" />
<path d="M106489 26779
L106470 26760
" />
<path d="M96942 14180
L96942 14420
" />
<path d="M96942 13920
L96942 14180
" />
</g>
<g style="fill:#000000; fill-opacity:0.0; 
stroke:#000000; stroke-width:500; stroke-opacity:1; 
stroke-linecap:round; stroke-linejoin:round;">
<path d="M98140 13779
L97740 14180
" />
<path d="M97740 14180
L96942 14180
" />
<path d="M99410 13779
L98140 13779
" />
<path d="M106300 13779
L99410 13779
" />
</g>
<g style="fill:#000000; fill-opacity:0.0; 
stroke:#000000; stroke-width:400; stroke-opacity:1; 
stroke-linecap:round; stroke-linejoin:round;">
<path d="M99410 14968
L99370 15008
" />
<path d="M99410 13779
L99410 14968
" />
</g>
<g style="fill:#000000; fill-opacity:0.0; 
stroke:#000000; stroke-width:120; stroke-opacity:1; 
stroke-linecap:round; stroke-linejoin:round;">
<path d="M98980 35232
L98980 35286
" />
<path d="M95970 33272
L94195 31497
" />
<path d="M95970 35160
L95970 33272
" />
<path d="M96266 35456
L95970 35160
" />
<path d="M98810 35456
L96266 35456
" />
<path d="M98980 35286
L98810 35456
" />
<path d="M100489 34856
L100489 34555
" />
<path d="M99198 34353
L98980 34571
" />
<path d="M100287 34353
L99198 34353
" />
<path d="M100489 34555
L100287 34353
" />
<path d="M95010 25700
L94050 25700
" />
<path d="M93440 27451
L94195 28206
" />
<path d="M93440 26310
L93440 27451
" />
<path d="M94050 25700
L93440 26310
" />
<path d="M94195 28206
L94195 31497
" />
<path d="M99054 25700
L95010 25700
" />
<path d="M98980 35232
L98980 34571
" />
<path d="M101982 25984
L99338 25984
" />
<path d="M99338 25984
L99054 25700
" />
<path d="M102926 26928
L101982 25984
" />
<path d="M102949 26928
L102926 26928
" />
<path d="M97489 34856
L97489 33799
" />
<path d="M94949 31259
L94949 26928
" />
<path d="M97489 33799
L94949 31259
" />
<path d="M96489 34856
L96489 33239
" />
<path d="M95949 26363
L95949 26928
" />
<path d="M95570 25984
L95949 26363
" />
<path d="M94810 25984
L95570 25984
" />
<path d="M94442 26352
L94810 25984
" />
<path d="M94442 27384
L94442 26352
" />
<path d="M94534 27476
L94442 27384
" />
<path d="M94534 31284
L94534 27476
" />
<path d="M96489 33239
L94534 31284
" />
<path d="M92553 34141
L91640 34141
" />
<path d="M91640 34141
L91634 34147
" />
<path d="M95489 34856
L92766 34856
" />
<path d="M92553 34643
L92553 34141
" />
<path d="M92766 34856
L92553 34643
" />
<path d="M98949 26928
L98949 26253
" />
<path d="M96450 26310
L96450 27895
" />
<path d="M96764 25996
L96450 26310
" />
<path d="M98692 25996
L96764 25996
" />
<path d="M98949 26253
L98692 25996
" />
<path d="M98949 26928
L98949 26667
" />
<path d="M96450 27895
L95489 28856
" />
<path d="M96949 26928
L96949 26605
" />
<path d="M96949 26605
L97274 26280
" />
<path d="M101325 26304
L101949 26928
" />
<path d="M99722 26304
L101325 26304
" />
<path d="M99458 26568
L99722 26304
" />
<path d="M99458 27296
L99458 26568
" />
<path d="M99218 27536
L99458 27296
" />
<path d="M98674 27536
L99218 27536
" />
<path d="M98450 27312
L98674 27536
" />
<path d="M98450 26544
L98450 27312
" />
<path d="M98186 26280
L98450 26544
" />
<path d="M97274 26280
L98186 26280
" />
<path d="M96949 26928
L96949 28396
" />
<path d="M96949 28396
L96489 28856
" />
<path d="M100949 26928
L100786 26928
" />
<path d="M100180 27850
L99780 27850
" />
<path d="M99780 27850
L98980 28650
" />
<path d="M100949 27081
L100180 27850
" />
<path d="M100949 26928
L100949 27081
" />
<path d="M98980 29200
L98780 29400
" />
<path d="M98780 29400
L97680 29400
" />
<path d="M97680 29400
L97489 29209
" />
<path d="M97489 29209
L97489 28856
" />
<path d="M98980 28650
L98980 29200
" />
<path d="M97949 26928
L97949 28316
" />
<path d="M97949 28316
L98489 28856
" />
<path d="M98489 28741
L98489 28856
" />
<path d="M99949 27281
L98489 28741
" />
<path d="M99949 26928
L99949 27281
" />
<path d="M100880 18760
L101090 18760
" />
<path d="M101480 20800
L101970 21290
" />
<path d="M101480 19150
L101480 20800
" />
<path d="M101090 18760
L101480 19150
" />
<path d="M107090 24340
L105990 24340
" />
<path d="M105990 24340
L104930 23280
" />
<path d="M104930 23280
L102990 23280
" />
<path d="M102990 23280
L101970 22260
" />
<path d="M101970 22260
L101970 21290
" />
<path d="M99810 18880
L99810 19288
" />
<path d="M99930 18760
L99810 18880
" />
<path d="M100880 18760
L99930 18760
" />
<path d="M99489 28856
L99489 30239
" />
<path d="M99489 30239
L99489 30659
" />
<path d="M107030 30320
L107500 29849
" />
<path d="M101060 30320
L107030 30320
" />
<path d="M99790 30960
L99489 30659
" />
<path d="M99790 31708
L99790 30960
" />
<path d="M100420 30960
L101060 30320
" />
<path d="M99790 30960
L100420 30960
" />
<path d="M107500 24750
L107090 24340
" />
<path d="M107500 29849
L107500 24750
" />
<path d="M101438 21720
L101150 21720
" />
<path d="M101150 21720
L100867 21437
" />
<path d="M100867 21437
L100867 20890
" />
<path d="M106930 30060
L107248 29742
" />
<path d="M101570 30060
L106930 30060
" />
<path d="M100489 28979
L101570 30060
" />
<path d="M101438 22128
L101438 21720
" />
<path d="M102850 23540
L101438 22128
" />
<path d="M104770 23540
L102850 23540
" />
<path d="M105930 24700
L104770 23540
" />
<path d="M107030 24700
L105930 24700
" />
<path d="M100489 28856
L100489 28979
" />
<path d="M107248 24918
L107030 24700
" />
<path d="M107248 29742
L107248 24918
" />
<path d="M93521 18950
L93521 20991
" />
<path d="M93630 21100
L95670 21100
" />
<path d="M93521 20991
L93630 21100
" />
<path d="M102290 29780
L106653 29780
" />
<path d="M101489 28979
L102290 29780
" />
<path d="M102530 23800
L101090 22360
" />
<path d="M104650 23800
L102530 23800
" />
<path d="M105810 24960
L104650 23800
" />
<path d="M106712 24960
L105810 24960
" />
<path d="M99830 21100
L95670 21100
" />
<path d="M101090 22360
L99830 21100
" />
<path d="M101489 28856
L101489 28979
" />
<path d="M106985 29448
L106653 29780
" />
<path d="M106768 24960
L106985 25177
" />
<path d="M106985 25177
L106985 29448
" />
<path d="M106712 24960
L106768 24960
" />
<path d="M93530 18812
L93536 18819
" />
<path d="M93530 15461
L93530 18812
" />
<path d="M102489 28856
L102489 28959
" />
<path d="M105980 28360
L105980 29112
" />
<path d="M105980 29112
L105552 29539
" />
<path d="M105552 29539
L102837 29539
" />
<path d="M102837 29539
L102489 29191
" />
<path d="M102489 29191
L102489 28856
" />
<path d="M105962 25706
L105962 27336
" />
<path d="M106040 25784
L105962 25706
" />
<path d="M104434 24178
L106040 25784
" />
<path d="M102346 24178
L104434 24178
" />
<path d="M99570 21402
L102346 24178
" />
<path d="M93002 17670
L93002 19344
" />
<path d="M105980 27354
L105962 27336
" />
<path d="M105980 28360
L105980 27354
" />
<path d="M99570 21401
L99528 21360
" />
<path d="M99528 21360
L93506 21360
" />
<path d="M93506 21360
L93281 21135
" />
<path d="M93281 21135
L93281 19623
" />
<path d="M93281 19623
L93002 19344
" />
<path d="M99570 21402
L99570 21401
" />
<path d="M93002 15092
L93174 14920
" />
<path d="M93174 14920
L94817 14920
" />
<path d="M93002 17670
L93002 15092
" />
<path d="M94817 15827
L94970 15980
" />
<path d="M94970 15980
L95298 15980
" />
<path d="M94817 14920
L94817 15827
" />
<path d="M92542 12007
L92413 12136
" />
<path d="M92413 12136
L90830 12136
" />
<path d="M106300 12007
L92542 12007
" />
<path d="M92554 12795
L92413 12936
" />
<path d="M92413 12936
L90830 12936
" />
<path d="M106300 12795
L92554 12795
" />
<path d="M96800 30618
L96800 30110
" />
<path d="M96546 29856
L95489 29856
" />
<path d="M96800 30110
L96546 29856
" />
<path d="M97790 30620
L96802 30620
" />
<path d="M96802 30620
L96800 30618
" />
<path d="M104318 27653
L104318 28008
" />
<path d="M104949 27023
L104318 27653
" />
<path d="M104949 26928
L104949 27023
" />
<path d="M103970 37320
L103970 37440
" />
<path d="M101970 37380
L101970 37320
" />
<path d="M103970 35836
L103970 37320
" />
<path d="M97790 31683
L98286 31683
" />
<path d="M98286 31683
L98958 31011
" />
<path d="M97790 31683
L97790 32040
" />
<path d="M101610 32200
L103970 34560
" />
<path d="M97950 32200
L101610 32200
" />
<path d="M97790 32040
L97950 32200
" />
<path d="M103970 35836
L103970 34560
" />
<path d="M98948 31021
L98958 31011
" />
<path d="M98948 30000
L98948 31021
" />
<path d="M103490 36770
L102520 36770
" />
<path d="M102520 36770
L101970 37320
" />
<path d="M103970 37250
L103490 36770
" />
<path d="M103970 37320
L103970 37250
" />
</g>
<g style="fill:#000000; fill-opacity:0.0; 
stroke:#000000; stroke-width:500; stroke-opacity:1; 
stroke-linecap:round; stroke-linejoin:round;">
<path d="M90830 13936
L92326 13936
" />
<path d="M92530 14140
L94817 14140
" />
<path d="M92326 13936
L92530 14140
" />
</g>
<g style="fill:#000000; fill-opacity:0.0; 
stroke:#000000; stroke-width:120; stroke-opacity:1; 
stroke-linecap:round; stroke-linejoin:round;">
<path d="M94817 14210
L93718 14210
" />
<path d="M93718 14210
L93530 14398
" />
<path d="M94817 13920
L94817 14140
" />
<path d="M94817 14140
L94817 14210
" />
<path d="M94817 14210
L94817 14420
" />
<path d="M87796 33169
L87799 33169
" />
<path d="M87799 33169
L90780 36150
" />
<path d="M101489 34856
L101489 35121
" />
<path d="M100460 36150
L90780 36150
" />
<path d="M101489 35121
L100460 36150
" />
<path d="M89847 33622
L89847 31205
" />
<path d="M89847 31205
L87796 29154
" />
<path d="M99489 34856
L99489 35201
" />
<path d="M92105 35880
L89847 33622
" />
<path d="M98810 35880
L92105 35880
" />
<path d="M99489 35201
L98810 35880
" />
<path d="M94213 22166
L94213 22992
" />
<path d="M93621 25014
L91365 25014
" />
<path d="M93973 24662
L93621 25014
" />
<path d="M93973 23232
L93973 24662
" />
<path d="M94213 22992
L93973 23232
" />
<path d="M92928 32959
L92928 32054
" />
<path d="M92928 32054
L91498 30624
" />
<path d="M90465 28115
L90473 28115
" />
<path d="M91498 29140
L91498 30624
" />
<path d="M90473 28115
L91498 29140
" />
<path d="M90465 26050
L90465 28115
" />
<path d="M90465 26050
L90465 26270
" />
<path d="M90465 25914
L91365 25014
" />
<path d="M90465 26050
L90465 25914
" />
<path d="M94895 22166
L95298 21763
" />
<path d="M94213 22166
L94895 22166
" />
</g>
<g style="fill:#000000; fill-opacity:0.0; 
stroke:#000000; stroke-width:400; stroke-opacity:1; 
stroke-linecap:round; stroke-linejoin:round;">
<path d="M100867 20150
L100011 20150
" />
</g>
<g style="fill:#000000; fill-opacity:0.0; 
stroke:#000000; stroke-width:500; stroke-opacity:1; 
stroke-linecap:round; stroke-linejoin:round;">
<path d="M95221 20351
L94181 20351
" />
<path d="M99810 20351
L95221 20351
" />
</g>
<g style="fill:#000000; fill-opacity:0.0; 
stroke:#000000; stroke-width:400; stroke-opacity:1; 
stroke-linecap:round; stroke-linejoin:round;">
<path d="M94181 20351
L94180 20350
" />
</g>
<g style="fill:#000000; fill-opacity:0.0; 
stroke:#000000; stroke-width:240; stroke-opacity:1; 
stroke-linecap:round; stroke-linejoin:round;">
<path d="M100867 19890
L100867 20150
" />
<path d="M100867 20150
L100867 20390
" />
</g>
<g style="fill:#000000; fill-opacity:0.0; 
stroke:#000000; stroke-width:120; stroke-opacity:1; 
stroke-linecap:round; stroke-linejoin:round;">
<path d="M100867 20390
L100865 20388
" />
</g>
<g style="fill:#000000; fill-opacity:0.0; 
stroke:#000000; stroke-width:240; stroke-opacity:1; 
stroke-linecap:round; stroke-linejoin:round;">
<path d="M100865 20388
L99770 20388
" />
<path d="M100271 19890
L99810 20351
" />
<path d="M100867 19890
L100271 19890
" />
</g>
<g style="fill:#000000; fill-opacity:0.0; 
stroke:#000000; stroke-width:120; stroke-opacity:1; 
stroke-linecap:round; stroke-linejoin:round;">
<path d="M95298 20428
L95221 20351
" />
<path d="M95298 20700
L95298 20428
" />
</g>
<g style="fill:#000000; fill-opacity:0.0; 
stroke:#000000; stroke-width:400; stroke-opacity:1; 
stroke-linecap:round; stroke-linejoin:round;">
<path d="M90227 20000
L91497 21270
" />
</g>
<g style="fill:#000000; fill-opacity:0.0; 
stroke:#000000; stroke-width:120; stroke-opacity:1; 
stroke-linecap:round; stroke-linejoin:round;">
<path d="M90440 22327
L91497 21270
" />
</g>
<g style="fill:#000000; fill-opacity:0.0; 
stroke:#000000; stroke-width:400; stroke-opacity:1; 
stroke-linecap:round; stroke-linejoin:round;">
<path d="M91497 22773
L90890 23380
" />
<path d="M90890 23380
L89950 23380
" />
<path d="M91497 21270
L91497 22773
" />
</g>
<g style="fill:#000000; fill-opacity:0.0; 
stroke:#000000; stroke-width:120; stroke-opacity:1; 
stroke-linecap:round; stroke-linejoin:round;">
<path d="M90227 20000
L91497 21270
" />
</g>
<g style="fill:#000000; fill-opacity:0.0; 
stroke:#000000; stroke-width:500; stroke-opacity:1; 
stroke-linecap:round; stroke-linejoin:round;">
<path d="M88323 20000
L90227 20000
" />
</g>
<g style="fill:#000000; fill-opacity:0.0; 
stroke:#000000; stroke-width:120; stroke-opacity:1; 
stroke-linecap:round; stroke-linejoin:round;">
<path d="M103489 28856
L103489 28661
" />
<path d="M103489 28856
L103489 28659
" />
<path d="M93104 29500
L92710 29500
" />
</g>
<g style="fill:#000000; fill-opacity:0.0; 
stroke:#000000; stroke-width:160; stroke-opacity:1; 
stroke-linecap:round; stroke-linejoin:round;">
<path d="M92710 29500
L90949 27739
" />
<path d="M90949 27739
L90949 26928
" />
</g>
<g style="fill:#000000; fill-opacity:0.0; 
stroke:#000000; stroke-width:200; stroke-opacity:1; 
stroke-linecap:round; stroke-linejoin:round;">
<path d="M103489 28856
L103489 27388
" />
<path d="M103489 27388
L103949 26928
" />
</g>
<g style="fill:#000000; fill-opacity:0.0; 
stroke:#000000; stroke-width:160; stroke-opacity:1; 
stroke-linecap:round; stroke-linejoin:round;">
<path d="M103489 28856
L103489 28645
" />
</g>
<g style="fill:#000000; fill-opacity:0.0; 
stroke:#000000; stroke-width:120; stroke-opacity:1; 
stroke-linecap:round; stroke-linejoin:round;">
<path d="M99980 29968
L100011 30000
" />
</g>
<g style="fill:#000000; fill-opacity:0.0; 
stroke:#000000; stroke-width:200; stroke-opacity:1; 
stroke-linecap:round; stroke-linejoin:round;">
<path d="M102982 28138
L103489 28645
" />
<path d="M102982 28138
L100370 28138
" />
</g>
<g style="fill:#000000; fill-opacity:0.0; 
stroke:#000000; stroke-width:120; stroke-opacity:1; 
stroke-linecap:round; stroke-linejoin:round;">
<path d="M99980 29968
L99980 28510
" />
<path d="M98030 22425
L98045 22425
" />
<path d="M103949 26928
L103949 26927
" />
</g>
<g style="fill:#000000; fill-opacity:0.0; 
stroke:#000000; stroke-width:200; stroke-opacity:1; 
stroke-linecap:round; stroke-linejoin:round;">
<path d="M103949 26928
L103949 26638
" />
<path d="M103949 26570
L102612 25234
" />
<path d="M103949 26928
L103949 26570
" />
<path d="M93976 25234
L93275 25935
" />
<path d="M93275 25935
L91942 25935
" />
<path d="M91942 25935
L90949 26928
" />
<path d="M94469 25234
L93976 25234
" />
<path d="M98030 25234
L94469 25234
" />
<path d="M102612 25234
L98030 25234
" />
<path d="M94469 24245
L94468 24244
" />
<path d="M94469 25234
L94469 24245
" />
<path d="M98030 25234
L98030 22425
" />
<path d="M100352 28138
L99980 28510
" />
<path d="M100370 28138
L100352 28138
" />
</g>
<g style="fill:#000000; fill-opacity:0.0; 
stroke:#000000; stroke-width:120; stroke-opacity:1; 
stroke-linecap:round; stroke-linejoin:round;">
<path d="M105489 28115
L105381 28008
" />
</g>
<g style="fill:#000000; fill-opacity:0.0; 
stroke:#000000; stroke-width:200; stroke-opacity:1; 
stroke-linecap:round; stroke-linejoin:round;">
<path d="M105489 28856
L105489 28115
" />
</g>
<g style="fill:#000000; fill-opacity:0.0; 
stroke:#000000; stroke-width:120; stroke-opacity:1; 
stroke-linecap:round; stroke-linejoin:round;">
<path d="M105554 27835
L105381 28008
" />
</g>
<g style="fill:#000000; fill-opacity:0.0; 
stroke:#000000; stroke-width:200; stroke-opacity:1; 
stroke-linecap:round; stroke-linejoin:round;">
<path d="M105554 26064
L105554 27835
" />
<path d="M104724 25234
L105554 26064
" />
<path d="M104187 25234
L104724 25234
" />
</g>
<g style="fill:#000000; fill-opacity:1.0; 
stroke:#000000; stroke-width:100; stroke-opacity:1; 
stroke-linecap:round; stroke-linejoin:round;">
<polyline style="fill-rule:evenodd;"
points="92834,33568
92890,33605
92926,33658
92932,33644
93002,33574
93017,33568
92834,33568
" /> 
<polyline style="fill-rule:evenodd;"
points="91279,27602
92390,28713
93518,28713
93613,28732
93697,28787
93753,28870
93772,28968
93772,30031
93754,30126
93699,30210
93616,30266
93518,30286
92140,30286
92044,30267
91960,30212
91931,30170
91808,30170
91808,30495
93147,31834
93214,31935
93238,32054
93238,32405
93264,32423
93320,32506
93340,32604
93340,33313
93321,33408
93266,33492
93194,33541
93252,33599
93252,34091
93244,34091
93244,34191
93252,34191
93252,34198
93352,34198
93352,34191
93352,34091
93352,33599
93414,33536
93509,33536
93601,33574
93671,33644
93709,33736
93709,33836
93709,34028
93647,34091
93352,34091
93352,34191
93647,34191
93709,34253
93709,34445
93709,34545
93709,34546
95021,34546
95022,34544
95177,34390
95379,34306
95597,34305
95660,34331
95660,33400
93975,31716
93908,31615
93885,31497
93885,28334
93220,27670
93153,27569
93149,27550
92949,27590
92738,27548
92560,27429
92449,27263
92337,27429
92159,27548
91949,27590
91738,27548
91560,27429
91449,27263
91337,27429
91279,27469
91279,27602
" /> 
<polyline style="fill-rule:evenodd;"
points="87042,36749
87241,36788
87241,35022
87241,31007
87252,30789
87314,30637
87410,30610
87480,30681
87480,30539
87508,30444
87714,30371
87932,30381
88083,30444
88111,30539
87796,30855
87480,30539
87480,30681
87725,30925
87410,31241
87314,31213
87241,31007
87241,35022
87246,34928
87246,33060
87329,32858
87484,32703
87686,32619
87905,32619
87971,32646
87971,32528
88085,32252
88290,32047
88085,31843
87971,31567
87971,31447
87877,31480
87659,31469
87508,31407
87480,31311
87796,30996
87801,31002
87872,30931
87866,30925
88182,30610
88277,30637
88324,30770
88571,30668
88869,30667
88872,30668
87907,29703
87906,29704
87687,29704
87484,29620
87330,29466
87246,29264
87246,29045
87329,28843
87484,28688
87633,28626
87633,22489
87633,22390
87633,22112
87633,21887
87633,21609
87633,21510
87671,21418
87742,21348
87833,21310
88211,21310
88273,21372
88273,21950
87696,21950
87633,21887
87633,22112
87696,22050
88273,22050
88273,22627
88211,22690
87833,22690
87742,22651
87671,22581
87633,22489
87633,28626
87686,28604
87905,28604
87971,28631
87971,28513
88085,28237
88295,28026
88373,27994
88373,22627
88373,22050
88373,21950
88373,21372
88436,21310
88813,21310
88905,21348
88975,21418
89013,21510
89013,21609
89013,21887
88951,21950
88373,21950
88373,22050
88951,22050
89013,22112
89013,22390
89013,22489
88975,22581
88905,22651
88813,22690
88436,22690
88373,22627
88373,27994
88571,27912
88869,27911
89145,28025
89306,28186
89306,25323
89306,24992
89306,24767
89306,24436
89344,24344
89414,24274
89506,24236
89606,24236
89837,24236
89900,24299
89900,24830
89369,24830
89306,24767
89306,24992
89369,24930
89900,24930
89900,25461
89837,25523
89606,25523
89506,25523
89414,25485
89344,25415
89306,25323
89306,28186
89356,28236
89399,28338
89399,27377
89399,27040
89399,26815
89399,26478
89437,26386
89507,26316
89599,26278
89698,26278
89836,26278
89899,26340
89899,26878
89461,26878
89399,26815
89399,27040
89461,26978
89899,26978
89899,27515
89836,27578
89698,27578
89599,27578
89507,27539
89437,27469
89399,27377
89399,28338
89471,28512
89471,28718
90038,28718
90101,28781
90101,29450
89274,29450
89212,29387
89212,29232
89146,29297
88871,29411
88572,29412
88436,29355
89247,30167
89212,30081
89212,29981
89212,29612
89274,29550
90101,29550
90101,30219
90038,30281
89412,30281
89326,30245
90066,30986
90133,31086
90157,31205
90157,33494
90201,33537
90201,30219
90201,29550
91027,29550
91090,29612
91090,29981
91090,30081
91051,30173
90981,30243
90889,30281
90263,30281
90201,30219
90201,33537
91127,34464
91123,34442
91123,33852
91141,33756
91196,33673
91279,33617
91291,33614
91236,33591
91166,33521
91128,33429
91128,33197
91128,32972
91128,32739
91166,32647
91236,32577
91328,32539
91427,32539
91521,32539
91584,32601
91584,33034
91190,33034
91128,32972
91128,33197
91190,33134
91584,33134
91584,33142
91684,33142
91684,33134
91684,33034
91684,32601
91746,32539
91840,32539
91939,32539
92031,32577
92101,32647
92139,32739
92139,32972
92077,33034
91684,33034
91684,33134
92077,33134
92139,33197
92139,33429
92101,33521
92031,33591
91977,33614
91985,33615
92069,33670
92125,33753
92140,33831
92141,33831
92141,33786
92160,33691
92215,33607
92298,33551
92396,33531
92647,33531
92591,33494
92535,33411
92515,33313
92515,32604
92534,32509
92589,32425
92618,32405
92618,32182
91278,30843
91211,30742
91188,30624
91187,30624
91188,30623
91188,29268
91090,29170
91090,29387
91027,29450
90201,29450
90201,28781
90263,28718
90638,28718
90269,28350
90245,28334
90178,28233
90155,28115
90155,27578
90061,27578
89999,27515
89999,26978
90006,26978
90006,26878
89999,26878
89999,26340
90061,26278
90155,26278
90155,26270
90155,26050
90155,25914
90178,25795
90245,25694
90433,25506
90393,25523
90293,25523
90062,25523
90000,25461
90000,24930
90000,24830
90000,24299
90062,24236
90293,24236
90393,24236
90485,24274
90555,24344
90593,24436
90593,24767
90531,24830
90000,24830
90000,24930
90531,24930
90593,24992
90593,25323
90576,25363
91145,24794
91246,24727
91365,24704
92917,24704
92917,24324
92928,24107
92990,23958
93085,23932
93397,24244
93085,24555
92990,24529
92917,24324
92917,24704
93177,24704
93156,24626
93468,24314
93473,24320
93544,24249
93538,24244
93544,24238
93473,24167
93468,24173
93156,23861
93182,23766
93387,23693
93604,23704
93663,23729
93663,23232
93686,23113
93753,23012
93903,22863
93903,22716
93721,22716
93625,22697
93541,22642
93485,22559
93466,22461
93466,21870
93484,21775
93539,21691
93571,21670
93506,21670
93387,21646
93286,21579
93129,21422
93129,22648
93111,22743
93056,22827
92973,22883
92875,22902
91921,22902
91912,22945
91815,23091
91208,23698
91062,23795
90890,23830
90410,23830
90314,23925
90078,24023
89822,24023
89585,23925
89404,23744
89306,23508
89306,23252
89404,23015
89585,22834
89821,22736
89881,22736
89864,22648
89864,20500
89006,20500
89000,20535
88945,20619
88861,20675
88763,20694
87883,20694
87788,20676
87704,20621
87648,20538
87628,20440
87628,19560
87647,19464
87702,19380
87785,19324
87883,19305
88763,19305
88859,19323
88937,19375
88937,15487
88937,10087
88943,9753
89059,9474
89184,9411
89255,9482
89255,9340
89318,9215
89629,9093
89964,9099
90243,9215
90306,9340
89780,9865
89255,9340
89255,9482
89710,9936
89184,10461
89059,10399
88937,10087
88937,15487
88943,15153
89059,14874
89184,14811
89255,14882
89255,14740
89255,10532
89780,10007
89851,10078
89851,9936
90376,9411
90502,9474
90624,9785
90617,10119
90502,10399
90376,10461
89851,9936
89851,10078
90306,10532
90243,10658
89931,10780
89597,10773
89318,10658
89255,10532
89255,14740
89318,14615
89629,14493
89964,14499
90243,14615
90280,14689
90280,11217
90291,11000
90353,10851
90448,10824
90518,10895
90518,10754
90545,10659
90750,10586
90966,10597
91115,10659
91142,10754
90830,11065
90518,10754
90518,10895
90760,11136
90448,11448
90353,11421
90280,11217
90280,14689
90306,14740
89780,15265
89255,14740
89255,14882
89710,15336
89184,15861
89059,15799
88937,15487
88937,19375
88942,19378
88998,19461
89006,19500
89255,19500
89255,15932
89780,15407
89851,15478
89851,15336
90376,14811
90502,14874
90624,15185
90617,15519
90502,15799
90376,15861
89851,15336
89851,15478
90306,15932
90243,16058
89931,16180
89597,16173
89318,16058
89255,15932
89255,19500
90227,19500
90418,19538
90566,19637
91928,19637
91928,19124
91928,19025
91928,18931
91928,18706
91928,18612
91928,18513
91966,18421
92036,18351
92128,18313
92361,18313
92423,18375
92423,18769
91990,18769
91928,18706
91928,18931
91990,18869
92423,18869
92423,19262
92361,19324
92128,19324
92036,19286
91966,19216
91928,19124
91928,19637
92856,19637
92782,19563
92715,19462
92692,19344
92692,19324
92586,19324
92523,19262
92523,18869
92531,18869
92531,18769
92523,18769
92523,18375
92586,18313
92692,18313
92692,17670
92692,15092
92715,14973
92782,14872
92954,14700
93019,14657
93019,14640
92530,14640
92530,14640
92530,14640
92338,14601
92176,14493
92119,14436
91049,14436
90939,14482
90722,14482
90522,14399
90368,14246
90285,14045
90285,13828
90368,13628
90521,13474
90612,13436
90522,13399
90368,13246
90285,13045
90285,12828
90368,12628
90459,12536
90368,12446
90285,12245
90285,12028
90368,11828
90521,11674
90606,11639
90545,11614
90518,11519
90830,11207
90901,11278
90901,11136
91213,10824
91308,10851
91381,11055
91370,11272
91308,11421
91213,11448
90901,11136
90901,11278
91142,11519
91115,11614
91050,11637
91139,11673
91292,11826
92284,11826
92322,11788
92423,11721
92542,11697
94321,11697
94321,9910
94321,8071
101238,8071
101238,9910
94321,9910
94321,11697
105749,11697
105749,11104
105760,10887
105822,10738
105917,10711
105988,10782
106229,11023
105917,11335
105822,11308
105749,11104
105749,11697
105838,11697
105990,11545
106056,11518
106014,11501
105988,11406
106300,11094
106305,11099
106376,11029
106370,11023
106376,11018
106305,10947
106300,10952
105988,10640
106014,10546
106219,10473
106374,10481
106283,10249
106289,9915
106405,9636
106530,9573
107056,10098
107050,10103
107121,10174
107126,10169
107197,10239
107197,10098
107722,9573
107848,9636
107970,9947
107963,10281
107848,10560
107722,10623
107197,10098
107197,10239
107652,10694
107589,10819
107277,10941
106943,10935
106831,10888
106850,10942
106842,11087
106896,11033
107096,10950
107313,10950
107514,11033
107667,11186
107750,11387
107751,11604
107668,11804
107514,11958
107314,12041
107097,12041
106896,11958
106845,11907
106845,12115
106762,12316
106677,12401
106762,12485
106845,12686
106845,12895
106896,12844
107096,12761
107313,12761
107514,12844
107667,12997
107750,13198
107751,13415
107668,13615
107514,13769
107314,13852
107097,13852
106896,13769
106845,13718
106845,13887
106833,13916
106975,13861
107309,13867
107589,13983
107652,14108
107126,14634
107121,14628
107050,14699
107056,14704
106530,15230
106405,15167
106283,14855
106289,14521
106371,14324
106191,14325
106081,14279
99860,14279
99860,14320
99960,14320
100055,14338
100139,14393
100195,14476
100215,14575
100215,15441
100196,15536
100141,15620
100058,15676
99960,15696
98779,15696
98684,15677
98600,15622
98544,15539
98524,15441
98524,14575
98543,14479
98598,14396
98681,14340
98779,14320
98960,14320
98960,14279
98347,14279
98093,14533
97931,14641
97740,14680
97740,14680
97739,14680
97468,14680
97498,14752
97498,14807
97435,14870
96992,14870
96992,14862
96892,14862
96892,14870
96450,14870
96387,14807
96387,14752
96423,14666
96402,14636
96382,14538
96382,14301
96401,14206
96425,14170
96402,14136
96382,14038
96382,13801
96401,13706
96423,13673
96387,13587
96387,13532
96450,13470
96892,13470
96892,13477
96992,13477
96992,13470
97435,13470
97498,13532
97498,13587
97462,13673
97467,13680
97532,13680
97786,13425
97949,13317
98140,13279
98140,13279
99410,13279
106043,13279
105991,13257
105838,13105
97405,13105
97460,13160
97498,13252
97498,13307
97435,13370
96992,13370
96992,13362
96892,13362
96892,13370
96450,13370
96387,13307
96387,13252
96425,13160
96480,13105
95278,13105
95301,13120
95357,13203
95377,13301
95377,13538
95358,13633
95334,13669
95357,13703
95377,13801
95377,14038
95358,14133
95334,14169
95357,14203
95377,14301
95377,14538
95358,14633
95334,14669
95357,14703
95377,14801
95377,15038
95358,15133
95303,15217
95220,15273
95127,15292
95127,15469
95593,15469
95689,15487
95772,15542
95828,15625
95831,15637
95854,15582
95924,15512
96016,15474
96248,15474
96311,15536
96311,15930
96303,15930
96303,16030
96311,16030
96311,16423
96248,16485
96016,16485
95924,16447
95854,16377
95831,16323
95830,16331
95775,16415
95692,16471
95593,16490
95003,16490
94907,16472
94824,16417
94768,16334
94748,16235
94748,16196
94597,16046
94530,15945
94507,15827
94507,15292
94416,15274
94348,15230
94040,15230
94040,15756
94022,15852
93967,15935
93884,15991
93840,16000
93840,18309
93927,18326
94010,18381
94066,18464
94086,18563
94086,19074
94068,19170
94013,19254
93930,19310
93831,19329
93831,19329
93831,19823
94705,19823
94800,19842
94813,19850
94865,19815
94963,19796
95632,19796
95727,19814
95784,19851
96387,19851
96387,15087
96387,15032
96450,14970
96892,14970
96892,15225
96830,15288
96588,15288
96496,15250
96425,15179
96387,15087
96387,19851
96411,19851
96411,16423
96411,16030
96411,15930
96411,15536
96473,15474
96706,15474
96798,15512
96868,15582
96906,15674
96906,15773
96906,15867
96844,15930
96411,15930
96411,16030
96844,16030
96906,16092
96906,16186
96906,16285
96868,16377
96798,16447
96706,16485
96473,16485
96411,16423
96411,19851
96992,19851
96992,15225
96992,14970
97435,14970
97498,15032
97498,15087
97460,15179
97389,15250
97297,15288
97055,15288
96992,15225
96992,19851
97387,19851
97381,19818
97381,19031
97399,18935
97454,18852
97538,18796
97636,18776
97720,18776
97720,18180
97730,18129
97730,17940
97753,17821
97820,17720
98469,17072
98524,17035
98524,16858
98543,16763
98598,16679
98681,16623
98779,16603
99960,16603
100055,16622
100139,16677
100195,16760
100215,16858
100215,17724
100196,17820
100141,17903
100058,17959
99960,17979
98779,17979
98684,17961
98600,17906
98564,17853
98350,18068
98350,18170
98340,18220
98340,18776
98423,18776
98519,18794
98602,18849
98658,18933
98678,19031
98678,19818
98672,19851
99410,19851
99455,19821
99459,19820
99458,19820
99374,19765
99318,19682
99299,19583
99299,18993
99317,18897
99372,18814
99455,18758
99536,18741
99590,18660
99710,18540
99811,18473
99930,18450
100880,18450
101090,18450
101208,18473
101309,18540
101699,18930
101766,19031
101790,19150
101790,20671
102189,21070
102256,21171
102264,21214
102388,21214
102437,21262
102437,21057
102437,21002
102500,20940
102942,20940
102942,21195
102901,21236
102938,21252
103008,21322
103042,21405
103042,21195
103042,20940
103485,20940
103548,21002
103548,21057
103510,21149
103439,21220
103347,21258
103105,21258
103042,21195
103042,21405
103046,21414
103046,21513
103046,21607
102984,21670
102551,21670
102551,21276
102589,21238
102546,21220
102475,21149
102437,21057
102437,21262
102451,21276
102451,21670
102443,21670
102443,21770
102451,21770
102451,22163
102388,22225
102374,22225
102551,22403
102551,22163
102551,21770
102984,21770
103046,21832
103046,21926
103046,22025
103008,22117
102938,22187
102846,22225
102613,22225
102551,22163
102551,22403
103118,22970
104068,22970
104262,22970
104262,22969
104157,22930
104068,22690
104078,22434
104147,22267
104147,21115
104156,20859
104236,20667
104341,20628
104724,21011
104341,21394
104236,21355
104147,21115
104147,22267
104157,22241
104262,22202
104333,22273
104645,22586
104640,22591
104711,22662
104716,22656
105063,23003
105149,23060
105821,23732
105821,23366
105839,23270
105885,23202
105357,22674
105355,22737
105275,22930
105170,22969
104787,22586
104792,22580
104722,22509
104716,22515
104333,22132
104372,22027
104612,21938
104868,21947
105060,22027
105099,22132
105144,22087
105170,22112
105170,21487
105139,21570
104899,21659
104643,21649
104451,21570
104412,21464
104795,21081
104801,21087
104871,21016
104866,21011
104871,21005
104801,20934
104795,20940
104412,20557
104451,20452
104691,20363
104823,20368
104810,20355
104746,20355
104510,20258
104463,20212
104091,20212
103651,20651
103547,20721
103548,20722
103548,20777
103485,20840
103042,20840
103042,20832
102942,20832
102942,20840
102500,20840
102437,20777
102437,20722
102473,20636
102452,20606
102432,20508
102432,20271
102451,20176
102475,20140
102452,20106
102432,20008
102432,19771
102451,19676
102473,19643
102437,19557
102437,19502
102437,19277
102437,19222
102475,19130
102546,19059
102638,19021
102880,19021
102942,19084
102942,19340
102500,19340
102437,19277
102437,19502
102500,19440
102942,19440
102942,19447
103042,19447
103042,19440
103050,19440
103050,19340
103042,19340
103042,19084
103105,19021
103347,19021
103439,19059
103510,19130
103548,19222
103548,19277
103485,19339
103492,19339
103548,19302
103626,19250
103817,19212
103817,19212
104463,19212
104509,19166
104745,19068
105001,19068
105238,19165
105419,19346
105517,19583
105517,19648
106023,20154
106131,20316
106170,20507
106170,20507
106170,22072
106601,22504
106601,15300
107126,14775
107197,14846
107197,14704
107722,14179
107848,14242
107970,14553
107963,14887
107848,15167
107722,15230
107197,14704
107197,14846
107652,15300
107589,15426
107277,15548
106943,15541
106664,15426
106601,15300
106601,22504
106823,22726
106931,22888
106970,23080
106970,23080
106970,23137
107042,23184
107098,23268
107118,23366
107118,24035
107208,24053
107309,24120
107719,24531
107786,24631
107810,24750
107810,29849
107786,29968
107719,30068
107249,30539
107148,30606
107030,30630
101188,30630
100639,31179
100538,31246
100420,31270
100250,31270
100281,31314
100300,31413
100300,31890
101610,31890
101728,31913
101829,31980
104189,34340
104212,34375
104379,34306
104597,34305
104800,34389
104954,34544
104988,34625
105022,34544
105177,34390
105379,34306
105597,34305
105800,34389
105954,34544
105988,34625
106022,34544
106177,34390
106379,34306
106597,34305
106800,34389
106954,34544
107038,34746
107039,34964
106955,35167
106800,35321
106598,35405
106380,35406
106177,35322
106023,35167
105989,35086
105955,35167
105800,35321
105598,35405
105380,35406
105177,35322
105023,35167
104989,35086
104955,35167
104800,35321
104598,35405
104380,35406
104280,35364
104280,35836
104280,36852
104281,36853
104435,37008
104519,37210
104520,37428
104436,37631
104281,37785
104079,37869
103861,37870
103658,37786
103504,37631
103472,37556
103451,37607
103355,37635
103040,37320
103046,37314
102975,37243
102970,37249
102964,37243
102893,37314
102899,37320
102584,37635
102488,37607
102469,37552
102436,37631
102281,37785
102079,37869
101861,37870
101658,37786
101504,37631
101420,37429
101419,37211
101503,37008
101658,36854
101860,36770
102078,36769
102080,36770
102300,36550
102401,36483
102520,36460
103490,36460
103608,36483
103660,36517
103660,35836
103660,35378
103570,35410
103352,35399
103201,35337
103173,35241
103489,34926
103494,34932
103565,34861
103559,34856
103565,34850
103494,34779
103489,34785
103173,34470
103201,34374
103308,34336
101481,32510
100295,32510
100295,32658
100233,32721
99840,32721
99840,32713
99740,32713
99740,32721
99346,32721
99284,32658
99284,32510
97950,32510
97831,32486
97730,32419
97570,32259
97553,32233
97534,32233
97438,32215
97354,32160
97298,32077
97294,32054
97267,32118
97197,32188
97105,32226
97006,32226
96912,32226
96850,32164
96850,31731
96857,31731
96857,31631
96850,31631
96850,31623
96750,31623
96750,31631
96356,31631
96294,31568
96294,31336
96332,31244
96402,31174
96456,31151
96448,31150
96364,31095
96308,31012
96289,30913
96289,30323
96307,30227
96348,30166
95956,30166
95955,30167
95800,30321
95719,30355
95800,30389
95954,30544
96038,30746
96039,30964
95955,31167
95800,31321
95598,31405
95534,31405
96294,32165
96294,32026
96294,31793
96356,31731
96750,31731
96750,32164
96687,32226
96593,32226
96494,32226
96402,32188
96332,32118
96294,32026
96294,32165
97708,33579
97775,33680
97799,33799
97799,34388
97800,34389
97954,34544
97988,34625
98022,34544
98177,34390
98379,34306
98597,34305
98749,34368
98760,34351
98978,34133
99079,34066
99198,34043
99284,34043
99284,33116
99284,32883
99346,32821
99740,32821
99740,33254
99677,33316
99583,33316
99484,33316
99392,33278
99322,33208
99284,33116
99284,34043
99840,34043
99840,33254
99840,32821
100233,32821
100295,32883
100295,33116
100257,33208
100187,33278
100095,33316
99996,33316
99902,33316
99840,33254
99840,34043
100287,34043
100405,34066
100506,34133
100708,34335
100722,34357
100800,34389
100954,34544
100988,34625
101022,34544
101177,34390
101379,34306
101597,34305
101800,34389
101954,34544
101988,34625
102022,34544
102177,34390
102379,34306
102597,34305
102800,34389
102954,34544
102986,34619
103007,34568
103103,34540
103418,34856
103103,35171
103007,35143
102988,35088
102955,35167
102800,35321
102598,35405
102380,35406
102177,35322
102023,35167
101989,35086
101955,35167
101800,35321
101673,35374
100679,36369
100578,36436
100460,36460
90780,36460
90661,36436
90560,36369
89468,35277
89471,35283
89471,35581
89357,35857
89146,36068
88871,36182
88572,36183
88297,36069
88085,35858
87971,35582
87971,35462
87877,35495
87659,35484
87508,35422
87480,35326
87796,35011
87801,35017
87872,34946
87866,34940
88182,34625
88277,34652
88324,34785
88571,34683
88869,34682
88877,34686
87909,33717
87906,33719
87687,33719
87484,33635
87330,33481
87246,33279
87246,33060
87246,34928
87252,34804
87314,34652
87410,34625
87480,34696
87480,34554
87508,34459
87714,34386
87932,34396
88083,34459
88111,34554
87796,34870
87480,34554
87480,34696
87725,34940
87410,35256
87314,35228
87241,35022
87241,36788
87499,36840
87528,36852
87597,36880
88171,37264
88196,37288
88245,37338
88629,37912
88653,37969
88669,38010
88761,38470
102654,38470
102654,37705
102970,37390
103285,37705
103257,37801
103051,37874
102833,37863
102682,37801
102654,37705
102654,38470
106278,38470
106370,38010
106370,38010
106382,37981
106410,37912
106794,37338
106794,37338
106818,37313
106868,37264
107442,36880
107499,36856
107540,36840
107998,36748
107998,21725
107790,21812
107549,21812
107327,21720
107157,21550
107065,21328
107065,21088
107156,20866
107326,20696
107548,20603
107789,20603
107998,20690
107998,9471
107596,9390
107652,9502
107126,10027
106601,9502
106664,9376
106975,9254
107309,9261
107351,9278
106868,8955
106818,8906
106794,8881
106794,8881
106410,8307
106410,8307
106382,8238
106370,8209
106370,8209
106278,7750
88761,7750
88669,8209
88653,8250
88629,8307
88245,8881
88196,8931
88171,8955
88171,8955
87597,9339
87528,9367
87499,9379
87499,9379
87042,9470
87042,36749
" /> 
</g>
<g style="fill:#FFFFFF; fill-opacity:1.0; 
stroke:#FFFFFF; stroke-width:39.3701; stroke-opacity:1; 
stroke-linecap:round; stroke-linejoin:round;">
<circle cx="106300" cy="13779.5" r="177.315" /> 
<circle cx="106300" cy="12795.3" r="177.315" /> 
<circle cx="106300" cy="12007.9" r="177.315" /> 
<circle cx="106300" cy="11023.6" r="177.315" /> 
<circle cx="107127" cy="14704.7" r="433.315" /> 
<circle cx="107127" cy="10098.4" r="433.315" /> 
<circle cx="107206" cy="11496.1" r="177.315" /> 
<circle cx="107206" cy="13307.1" r="177.315" /> 
<circle cx="107669" cy="21208.1" r="334.645" /> 
<circle cx="104874" cy="19712" r="157.48" /> 
<circle cx="104795" cy="21011.2" r="157.48" /> 
<circle cx="104717" cy="22586" r="216.535" /> 
<circle cx="98030" cy="19425" r="180.315" /> 
<circle cx="98030" cy="22425" r="180.315" /> 
<circle cx="106470" cy="23760" r="180.315" /> 
<circle cx="106470" cy="26760" r="180.315" /> 
<circle cx="90830.8" cy="11136.7" r="177.315" /> 
<circle cx="90830.8" cy="12136.7" r="177.315" /> 
<circle cx="90830.8" cy="12936.7" r="177.315" /> 
<circle cx="90830.8" cy="13936.7" r="177.315" /> 
<circle cx="89780.8" cy="9936.67" r="433.315" /> 
<circle cx="89780.8" cy="15336.7" r="433.315" /> 
<circle cx="106489" cy="34856" r="180.315" /> 
<circle cx="105489" cy="34856" r="180.315" /> 
<circle cx="104489" cy="34856" r="180.315" /> 
<circle cx="103489" cy="34856" r="180.315" /> 
<circle cx="102489" cy="34856" r="180.315" /> 
<circle cx="101489" cy="34856" r="180.315" /> 
<circle cx="100489" cy="34856" r="180.315" /> 
<circle cx="99489" cy="34856" r="180.315" /> 
<circle cx="98489" cy="34856" r="180.315" /> 
<circle cx="97489" cy="34856" r="180.315" /> 
<circle cx="96489" cy="34856" r="180.315" /> 
<circle cx="95489" cy="34856" r="180.315" /> 
<circle cx="95489" cy="28856" r="180.315" /> 
<circle cx="96489" cy="28856" r="180.315" /> 
<circle cx="97489" cy="28856" r="180.315" /> 
<circle cx="98489" cy="28856" r="180.315" /> 
<circle cx="99489" cy="28856" r="180.315" /> 
<circle cx="100489" cy="28856" r="180.315" /> 
<circle cx="101489" cy="28856" r="180.315" /> 
<circle cx="102489" cy="28856" r="180.315" /> 
<circle cx="103489" cy="28856" r="180.315" /> 
<circle cx="104489" cy="28856" r="180.315" /> 
<circle cx="105489" cy="28856" r="180.315" /> 
<circle cx="106489" cy="28856" r="180.315" /> 
<circle cx="95489" cy="29856" r="180.315" /> 
<circle cx="95489" cy="30856" r="180.315" /> 
<circle cx="88323.7" cy="20000" r="230.315" /> 
<circle cx="89949" cy="26928" r="157.48" /> 
<circle cx="90949" cy="26928" r="157.48" /> 
<circle cx="91949" cy="26928" r="157.48" /> 
<circle cx="92949" cy="26928" r="157.48" /> 
<circle cx="93949" cy="26928" r="157.48" /> 
<circle cx="94949" cy="26928" r="157.48" /> 
<circle cx="95949" cy="26928" r="157.48" /> 
<circle cx="96949" cy="26928" r="157.48" /> 
<circle cx="97949" cy="26928" r="157.48" /> 
<circle cx="98949" cy="26928" r="157.48" /> 
<circle cx="99949" cy="26928" r="157.48" /> 
<circle cx="100949" cy="26928" r="157.48" /> 
<circle cx="101949" cy="26928" r="157.48" /> 
<circle cx="102949" cy="26928" r="157.48" /> 
<circle cx="103949" cy="26928" r="157.48" /> 
<circle cx="104949" cy="26928" r="157.48" /> 
<circle cx="88323.7" cy="22000" r="230.315" /> 
<circle cx="87796.1" cy="34940.8" r="130.315" /> 
<circle cx="87796.1" cy="33169.2" r="130.315" /> 
<circle cx="88721.3" cy="35433" r="236.22" /> 
<circle cx="88721.3" cy="32677" r="236.22" /> 
<circle cx="87796.1" cy="30925.8" r="130.315" /> 
<circle cx="87796.1" cy="29154.2" r="130.315" /> 
<circle cx="88721.3" cy="31418" r="236.22" /> 
<circle cx="88721.3" cy="28662" r="236.22" /> 
<circle cx="102970" cy="37320" r="137.795" /> 
<circle cx="101970" cy="37320" r="137.795" /> 
<circle cx="103970" cy="37320" r="137.795" /> 
<circle cx="89950" cy="23380" r="180.315" /> 
<circle cx="89950" cy="24880" r="177.315" /> 
<circle cx="93468" cy="24244" r="137.815" /> 
<circle cx="94468" cy="24244" r="137.815" /> 
</g> 
</svg>
